<svg width="120" height="48" viewBox="0 0 120 48" fill="none" xmlns="http://www.w3.org/2000/svg">
<path d="M17.8504 18.2207C17.1385 22.4923 15.1532 26.4397 12.0682 29.5884C8.84423 32.876 4.72316 34.9886 0.249023 35.6947C1.53396 42.6809 7.66926 48 15.0258 48C23.3143 48 30.0515 41.257 30.0515 32.9744C30.0515 25.6583 24.7902 19.5462 17.8504 18.2207Z" fill="#FBB256"/>
<path d="M11.4371 18.3827C11.7092 17.3235 11.8654 16.2296 11.8944 15.1009C11.9002 14.9678 11.9059 14.8289 11.9059 14.6958C11.9059 13.7697 11.8191 12.861 11.6513 11.9754C10.5458 6.04269 5.8922 1.26758 0 0V17.9313V22.7932V29.3915C0.156276 29.3568 0.306765 29.3221 0.463041 29.2816C5.81695 27.9503 10.0654 23.7135 11.4371 18.3827Z" fill="#FBB256"/>
<path d="M51.62 29.972C51.62 28.748 50.612 27.776 49.424 27.776C48.2 27.776 47.228 28.748 47.228 29.972V38.72C47.228 41.672 45.464 43.4 42.944 43.4C40.352 43.4 38.876 41.744 38.876 38.792V29.972C38.876 28.748 37.904 27.776 36.68 27.776C35.492 27.776 34.52 28.748 34.52 29.972V40.088C34.52 44.516 37.004 47.396 41.288 47.396C44.24 47.396 46.004 45.848 47.228 44.048V45.02C47.228 46.244 48.236 47.18 49.424 47.18C50.648 47.18 51.62 46.208 51.62 45.02V29.972ZM63.4322 47.324C64.5842 47.324 65.4842 47.144 66.4202 46.82C67.0322 46.568 67.5722 45.92 67.5722 45.128C67.5722 44.12 66.7082 43.328 65.7362 43.328C65.5922 43.328 65.1602 43.436 64.6562 43.436C63.1802 43.436 62.3162 42.752 62.3162 41.06V31.736H65.7362C66.7802 31.736 67.6442 30.908 67.6442 29.864C67.6442 28.82 66.7802 27.992 65.7362 27.992H62.3162V24.752C62.3162 23.564 61.3442 22.592 60.1562 22.592C58.9322 22.592 57.9602 23.564 57.9602 24.752V27.992H57.2402C56.1962 27.992 55.3682 28.82 55.3682 29.864C55.3682 30.908 56.1962 31.736 57.2402 31.736H57.9602V41.744C57.9602 45.92 60.2282 47.324 63.4322 47.324ZM78.233 47.324C79.385 47.324 80.285 47.144 81.221 46.82C81.833 46.568 82.373 45.92 82.373 45.128C82.373 44.12 81.509 43.328 80.537 43.328C80.393 43.328 79.961 43.436 79.457 43.436C77.981 43.436 77.117 42.752 77.117 41.06V31.736H80.537C81.581 31.736 82.445 30.908 82.445 29.864C82.445 28.82 81.581 27.992 80.537 27.992H77.117V24.752C77.117 23.564 76.145 22.592 74.957 22.592C73.733 22.592 72.761 23.564 72.761 24.752V27.992H72.041C70.997 27.992 70.169 28.82 70.169 29.864C70.169 30.908 70.997 31.736 72.041 31.736H72.761V41.744C72.761 45.92 75.029 47.324 78.233 47.324ZM89.4104 36.164C89.8064 33.212 91.6784 31.16 94.3424 31.16C97.2224 31.16 98.8784 33.356 99.1664 36.164H89.4104ZM101.686 44.912C102.01 44.588 102.262 44.12 102.262 43.58C102.262 42.572 101.506 41.816 100.534 41.816C100.03 41.816 99.7424 41.96 99.4184 42.212C98.1944 43.22 96.7544 43.868 94.9184 43.868C92.1104 43.868 89.9144 42.14 89.4464 39.044H101.362C102.478 39.044 103.414 38.18 103.414 36.956C103.414 32.564 100.426 27.596 94.3784 27.596C88.9424 27.596 85.0904 32.06 85.0904 37.496V37.568C85.0904 43.436 89.3384 47.432 94.8464 47.432C97.7984 47.432 99.9584 46.46 101.686 44.912ZM107.861 45.02C107.861 46.244 108.833 47.18 110.021 47.18C111.245 47.18 112.217 46.208 112.217 45.02V39.404C112.217 34.904 114.341 32.528 117.437 31.988C118.409 31.808 119.165 31.052 119.165 29.9C119.165 28.64 118.373 27.74 117.005 27.74C115.097 27.74 113.225 29.54 112.217 31.916V29.972C112.217 28.748 111.245 27.776 110.021 27.776C108.797 27.776 107.861 28.748 107.861 29.972V45.02Z" fill="#FBB256"/>
</svg>
